<?xml version="1.0" encoding="UTF-8" standalone="no"?>
<!-- Created with Inkscape (http://www.inkscape.org/) -->

<svg
   width="300"
   height="300"
   viewBox="0 0 79.374998 79.374998"
   version="1.1"
   id="svg1"
   xml:space="preserve"
   xmlns="http://www.w3.org/2000/svg"
   xmlns:svg="http://www.w3.org/2000/svg"><defs
     id="defs1" /><g
     id="layer1"
     transform="matrix(0.98218612,0,0,0.98218612,4.6970172,-2.9260213)"
     style="stroke-width:1.01814;fill:#ffffff"><path
       id="path1"
       style="fill:#ffffff;fill-opacity:1;stroke:none;stroke-width:0.187872px;stroke-linecap:butt;stroke-linejoin:miter;stroke-opacity:1"
       d="m 16.804445,65.205577 c 0,0 0.435113,5.328837 -6.093157,6.678864 -6.5282706,1.350028 -8.1396439,-3.100929 -8.1396439,-3.100929 0,0 -3.8707218,1.080885 -4.7171079,-2.306749 -0.846386,-3.387634 3.08429487,-3.874323 3.08429487,-3.874323 0,0 1.04726803,-2.772066 5.06136253,-4.012362 4.0141054,-1.240299 6.1543394,0.531309 6.1543394,0.531309 0,0 5.174806,-2.384546 6.691799,1.112251 1.516993,3.4968 -2.041887,4.971939 -2.041887,4.971939 z M 55.187862,48.141462 c -6.88326,2.368689 -6.9142,7.912597 -6.9142,7.912597 0,0 -4.482268,0.0542 -5.15374,4.672226 -0.537189,3.694481 1.888843,6.268057 6.092084,6.440872 6.579897,0.270529 9.966213,-1.44467 14.293472,-5.787111 3.171053,1.263639 7.298133,1.338364 9.623159,-2.875786 1.709417,-3.098346 -0.559072,-7.138675 -3.554931,-7.773215 -3.111839,-0.659104 -4.498774,0.09636 -4.498774,0.09636 -1.16158,-1.576977 -5.320344,-4.257459 -9.88707,-2.685942 z M 27.943202,15.607114 c -10.078547,2.353431 -8.930486,12.253447 -8.930486,12.253447 0,0 -6.237318,0.311023 -10.0900761,2.884251 -4.9926971,3.334586 -6.0992688,11.275596 -2.1516571,14.534387 2.465351,2.03517 8.3018812,2.027007 11.3944022,-0.07534 10.250486,4.379127 22.525537,-2.0793 24.220274,-7.864483 3.786925,1.815622 9.904755,-1.517123 13.111546,-4.528713 4.77121,-4.480779 3.156187,-12.50809 -1.072118,-13.915374 C 49.120154,17.129676 43.981274,20.36277 43.981274,20.36277 41.831342,15.723531 37.174391,13.451546 27.943202,15.607112 Z" /></g></svg>
