<?xml version="1.0" encoding="UTF-8" standalone="no"?>
<!-- Created with Inkscape (http://www.inkscape.org/) -->

<svg
   width="240"
   height="240"
   viewBox="0 0 63.499999 63.5"
   version="1.1"
   id="svg1"
   inkscape:version="1.4 (86a8ad7, 2024-10-11)"
   sodipodi:docname="bishop_Xiangqi.svg"
   xmlns:inkscape="http://www.inkscape.org/namespaces/inkscape"
   xmlns:sodipodi="http://sodipodi.sourceforge.net/DTD/sodipodi-0.dtd"
   xmlns="http://www.w3.org/2000/svg"
   xmlns:svg="http://www.w3.org/2000/svg">
  <sodipodi:namedview
     id="namedview1"
     pagecolor="#2d2d2d"
     bordercolor="#000000"
     borderopacity="0.25"
     inkscape:showpageshadow="2"
     inkscape:pageopacity="0.0"
     inkscape:pagecheckerboard="0"
     inkscape:deskcolor="#d1d1d1"
     inkscape:document-units="mm"
     inkscape:zoom="2.9041807"
     inkscape:cx="135.32216"
     inkscape:cy="122.40974"
     inkscape:window-width="1920"
     inkscape:window-height="1017"
     inkscape:window-x="-8"
     inkscape:window-y="-3"
     inkscape:window-maximized="1"
     inkscape:current-layer="layer1" />
  <defs
     id="defs1">
    <rect
       x="148.06241"
       y="29.956814"
       width="85.394136"
       height="134.97783"
       id="rect2" />
    <rect
       x="23.414521"
       y="32.367132"
       width="196.95744"
       height="175.26458"
       id="rect1" />
  </defs>
  <g
     inkscape:label="图层 1"
     inkscape:groupmode="layer"
     id="layer1">
    <path
       id="text1"
       style="font-size:20px;font-family:Sans;-inkscape-font-specification:'Sans, Normal';white-space:pre;fill:#ffffff;stroke-width:15.6616"
       d="m 30.06451,4.6455249 c -1.150583,0.031252 -2.264053,0.2803254 -3.337379,0.7665842 -1.147051,0.5196573 -2.058729,1.2497623 -2.735191,2.1900957 -0.647053,0.9155869 -0.970863,1.9053106 -0.970863,2.9693722 0,1.01457 0.32381,2.004294 0.970863,2.969371 0.499993,0.717623 1.132374,1.299445 1.897075,1.744867 -0.882346,0.247456 -1.735477,0.544019 -2.558999,0.890457 -2.294095,1.039314 -4.073545,2.487211 -5.338239,4.343131 -1.205767,1.806428 -1.822909,3.699676 -1.852424,5.679323 v 0.14824 c 0.02941,1.979648 0.646552,3.860073 1.852424,5.641756 1.058812,1.558972 2.47054,2.808823 4.235231,3.749156 -0.323511,0.346439 -0.602809,0.730218 -0.838115,1.150892 -0.941168,1.311516 -1.411342,2.709646 -1.411342,4.194382 0,1.410501 0.455539,2.77118 1.367294,4.082697 H 21.079954 L 9.1242783,60.161963 H 30.06451 V 57.786059 H 16.006606 l 9.794314,-12.62021 c -1.852923,-1.336263 -2.779843,-2.795965 -2.779843,-4.379684 0,-1.064061 0.32381,-2.078922 0.970863,-3.044 0.676462,-0.965079 1.573506,-1.695183 2.691143,-2.190095 1.087094,-0.492496 2.215078,-0.743381 3.381427,-0.769123 v -2.014441 h -2.366516 v -4.602552 h -7.5883 v -4.009083 h 7.5883 V 19.55432 h 2.366516 v -5.060472 c -0.76864,-0.02923 -1.514122,-0.192949 -2.234372,-0.507164 -0.764699,-0.346439 -1.367809,-0.841555 -1.80898,-1.48494 -0.411762,-0.668131 -0.617273,-1.360785 -0.617273,-2.078408 0,-0.7176217 0.220151,-1.3984677 0.661321,-2.0418552 0.441174,-0.6681315 1.044282,-1.1627395 1.80898,-1.484432 0.693235,-0.3140612 1.424576,-0.4783219 2.190324,-0.5076717 z" />
    <path
       id="text2"
       style="font-size:20px;font-family:'Source Han Sans SC';-inkscape-font-specification:'Source Han Sans SC';white-space:pre;fill:#ffffff;stroke-width:10.6512"
       d="M 39.728764,5.7772171 39.124161,6.0295077 H 30.97565 v 3.7822966 h 5.981403 C 36.049998,11.513929 34.941349,13.279235 33.832724,14.666151 H 30.97565 v 3.65582 h 3.008376 c -0.832374,1.85623 -1.849486,3.547434 -3.008376,5.078527 v 5.449933 H 51.822867 V 14.666151 H 38.368231 c 1.461368,-2.080374 2.922459,-4.539039 3.930298,-6.745495 z M 37.561682,18.321971 H 48.09391 V 25.13104 H 33.832724 c 1.461368,-2.017332 2.670726,-4.287404 3.728958,-6.809069 z M 30.97565,29.531005 v 4.873755 c 0.09493,0.103053 0.194866,0.204433 0.28731,0.308499 -0.09177,0.08063 -0.192749,0.16048 -0.28731,0.240911 v 3.989076 c 0.775382,-0.60132 1.522316,-1.210873 2.201828,-1.834265 0.806272,1.134749 1.512087,2.269451 2.066399,3.404201 -1.215556,1.23743 -2.667778,2.451737 -4.268227,3.617676 v 4.226641 c 2.02674,-1.421537 3.925309,-2.933771 5.578142,-4.503023 1.360583,4.538999 0.705764,8.447044 -1.309915,10.086127 -1.00784,0.882582 -2.217424,1.009147 -3.527616,1.009147 -0.199829,0 -0.505179,-0.0094 -0.740611,-0.01075 v 4.207234 c 0.484393,0.01217 0.983501,0.02677 1.395858,0.02677 2.116464,0 3.577756,-0.378149 5.341476,-1.891148 3.376263,-2.647749 4.283068,-9.077686 1.81386,-15.823142 l 2.771685,-1.63953 c 2.166856,5.925914 6.299175,13.049928 12.24543,16.769384 0.50392,-1.323874 1.663062,-3.15186 2.519725,-4.097485 -5.694295,-2.962958 -9.67564,-9.14133 -11.792103,-14.625953 2.519599,-1.639083 5.039451,-3.467278 7.155915,-5.232443 l -3.023671,-2.836723 c -2.872343,2.647749 -7.458116,6.114585 -11.237514,8.510166 -1.625042,-3.109232 -3.986007,-6.155882 -7.190661,-8.775168 z" />
    <rect
       style="fill:#ffffff;stroke-width:0.991163"
       id="rect3"
       width="2.0953979"
       height="61.039875"
       x="29.426685"
       y="1.7309816" />
  </g>
</svg>
