<?xml version="1.0" encoding="UTF-8" standalone="no"?>
<!-- Created with Inkscape (http://www.inkscape.org/) -->

<svg
   width="240"
   height="240"
   viewBox="0 0 63.499999 63.5"
   version="1.1"
   id="svg1"
   inkscape:version="1.4 (86a8ad7, 2024-10-11)"
   sodipodi:docname="cannon_chess.svg"
   xmlns:inkscape="http://www.inkscape.org/namespaces/inkscape"
   xmlns:sodipodi="http://sodipodi.sourceforge.net/DTD/sodipodi-0.dtd"
   xmlns="http://www.w3.org/2000/svg"
   xmlns:svg="http://www.w3.org/2000/svg">
  <sodipodi:namedview
     id="namedview1"
     pagecolor="#2d2d2d"
     bordercolor="#000000"
     borderopacity="0.25"
     inkscape:showpageshadow="2"
     inkscape:pageopacity="0.0"
     inkscape:pagecheckerboard="0"
     inkscape:deskcolor="#d1d1d1"
     inkscape:document-units="mm"
     inkscape:zoom="2.9041807"
     inkscape:cx="135.32216"
     inkscape:cy="119.99942"
     inkscape:window-width="1920"
     inkscape:window-height="1017"
     inkscape:window-x="-8"
     inkscape:window-y="-3"
     inkscape:window-maximized="1"
     inkscape:current-layer="layer1" />
  <defs
     id="defs1">
    <rect
       x="128.43553"
       y="30.645476"
       width="126.71388"
       height="152.88305"
       id="rect4" />
    <rect
       x="148.06241"
       y="29.956814"
       width="85.394136"
       height="134.97783"
       id="rect2" />
    <rect
       x="23.414521"
       y="32.367132"
       width="196.95744"
       height="175.26458"
       id="rect1" />
  </defs>
  <g
     inkscape:label="图层 1"
     inkscape:groupmode="layer"
     id="layer1">
    <path
       id="text1"
       style="font-size:20px;font-family:Sans;-inkscape-font-specification:'Sans, Normal';white-space:pre;fill:#ffffff;stroke-width:16.3386"
       d="m 31.795492,4.7366292 c 1.252211,0.031252 2.464031,0.2803254 3.632162,0.7665842 1.248366,0.5196573 2.240571,1.2497623 2.976783,2.1900957 0.704205,0.9155869 1.056617,1.9053106 1.056617,2.9693719 0,1.01457 -0.352412,2.004294 -1.056617,2.969371 -0.544156,0.717623 -1.232394,1.299445 -2.064639,1.744867 0.960282,0.247456 1.888767,0.544019 2.785029,0.890457 2.496726,1.039314 4.433351,2.487211 5.809753,4.343131 1.312268,1.806428 1.983921,3.699676 2.016043,5.679323 v 0.14824 c -0.03201,1.979648 -0.70366,3.860073 -2.016043,5.641756 -1.152335,1.558972 -2.688758,2.808823 -4.609319,3.749156 0.352086,0.346439 0.656053,0.730218 0.912143,1.150892 1.0243,1.311516 1.536003,2.709646 1.536003,4.194382 0,1.410501 -0.495776,2.77118 -1.488064,4.082697 h 0.288288 L 54.585322,60.253067 H 31.795492 V 57.877163 H 47.095096 L 36.435674,45.256953 c 2.016587,-1.336263 3.02538,-2.795965 3.02538,-4.379684 0,-1.064061 -0.352412,-2.078922 -1.056617,-3.044 -0.736212,-0.965079 -1.71249,-1.695183 -2.928845,-2.190095 -1.183114,-0.492496 -2.41073,-0.743381 -3.6801,-0.769123 V 32.85961 h 2.575545 v -4.602552 h 8.258555 v -4.009083 h -8.258555 v -4.602551 h -2.575545 v -5.060472 c 0.836532,-0.02923 1.647861,-0.192949 2.431729,-0.507164 0.832242,-0.346439 1.488623,-0.841555 1.968762,-1.48494 0.448132,-0.668131 0.671796,-1.360785 0.671796,-2.078408 0,-0.7176214 -0.239597,-1.3984674 -0.719735,-2.0418549 C 35.667903,7.8044536 35.011523,7.3098456 34.179282,6.9881531 33.424815,6.6740919 32.628876,6.5098312 31.795492,6.4804814 Z" />
    <rect
       style="fill:#ffffff;stroke-width:0.991163"
       id="rect3"
       width="2.0953979"
       height="61.039875"
       x="31.157667"
       y="1.8220859" />
    <path
       id="text5"
       style="font-size:47.9486px;font-family:'Source Han Sans SC';-inkscape-font-specification:'Source Han Sans SC';fill:#ffffff;stroke-width:8.83492"
       d="m 27.113595,7.2007479 c -1.324736,7.1325651 -3.612836,13.9382081 -6.663744,18.2939731 0.642297,0.598918 1.886747,1.905466 2.368469,2.613278 l 1.083767,-1.85105 v 24.283272 c 0,5.281366 1.284762,6.588228 5.620262,6.588228 h 1.908629 V 53.48061 h -1.74798 c -2.488899,0 -2.930495,-0.544718 -2.930495,-2.940389 V 39.977558 h 4.678475 v -3.484541 h -4.678475 v -9.419064 h 4.678475 v -3.430281 h -6.203905 c 0.722584,-1.578966 1.404734,-3.321611 2.006886,-5.172811 h 4.197019 v -3.7021 h -3.032681 c 0.602153,-2.177882 1.163929,-4.464749 1.605508,-6.7515255 z M 13.30416,7.7449007 V 26.202689 c 0,10.072707 -0.642,20.471733 -6.4628102,28.421004 0.6422962,0.598918 1.6458769,2.014976 2.0874556,2.886128 3.2114816,-4.355765 4.9777666,-9.310839 5.9813546,-14.646651 1.565598,2.722353 3.572767,6.370333 4.455924,8.27598 l 2.12725,-2.939871 c -0.923301,-1.524518 -4.536188,-7.404665 -5.981355,-9.528102 0.441579,-3.756846 0.562027,-7.568371 0.562027,-11.379666 l 1.645793,1.088822 c 1.284593,-2.776801 2.810099,-7.295895 4.054547,-10.998295 L 19.245229,15.96662 c -0.68244,3.15793 -2.087348,7.677113 -3.171223,10.671701 V 26.256949 7.7449007 Z M 9.2098185,18.579898 C 9.089388,23.425686 8.4067387,28.816214 6.9214287,31.756355 l 2.1277406,1.415418 C 10.695053,29.741607 11.337209,24.079106 11.377353,19.01553 Z" />
  </g>
</svg>
