<?xml version="1.0" encoding="UTF-8" standalone="no"?>
<!-- Created with Inkscape (http://www.inkscape.org/) -->

<svg
   width="300"
   height="300"
   viewBox="0 0 79.374998 79.374998"
   version="1.1"
   id="svg1"
   xml:space="preserve"
   xmlns="http://www.w3.org/2000/svg"
   xmlns:svg="http://www.w3.org/2000/svg"><defs
     id="defs1" /><g
     id="layer1"
     transform="matrix(0.8623105,0,0,0.8623105,-0.56663556,8.7961832)"
     style="stroke-width:1.15968;fill:#ffffff"><path
       id="path1"
       style="color:#000000;fill:#ffffff;stroke-width:1.15968;stroke-linecap:round;-inkscape-stroke:none"
       d="M 57.062667,6.3065918 44.746106,21.703068 29.728418,9.6913981 32.581991,29.672091 10.720793,23.42596 26.47642,39.181588 5.0761759,48.353638 28.89281,51.756014 30.376957,51.968921 30.800704,48.998043 29.316557,48.785136 16.089974,46.896362 31.73243,40.193412 21.029207,29.49019 l 15.177885,4.337719 -2.437577,-17.062524 11.443229,9.15448 8.849589,-11.060307 v 8.952942 1.500167 h 3.000334 V 23.8125 Z m -4.146,22.7975752 c -21.166624,0 -21.166667,31.75 -21.166667,31.75 h 42.333333 c 0,0 -4.4e-5,-31.75 -21.166666,-31.75 z M 50.27135,32.8967 a 1.5,1.5 0 0 1 1.500167,1.49965 1.5,1.5 0 0 1 -1.500167,1.500167 c -0.492185,0 -1.435498,0.327061 -2.466516,1.050582 -1.031017,0.72352 -2.150033,1.794049 -3.150712,3.025655 -2.001359,2.46321 -3.466455,5.631418 -3.466455,7.652246 A 1.5,1.5 0 0 1 39.6875,49.125167 1.5,1.5 0 0 1 38.187333,47.625 c 0,-3.270824 1.840658,-6.716714 4.138766,-9.545154 1.149052,-1.414219 2.430422,-2.659325 3.755843,-3.589445 1.32542,-0.930119 2.697226,-1.593701 4.189408,-1.593701 z M 23.8125,63.646244 A 2.5,2.5 0 0 0 21.312394,66.14635 2.5,2.5 0 0 0 23.8125,68.646456 H 84.66615 A 2.5,2.5 0 0 0 87.166256,66.14635 2.5,2.5 0 0 0 84.66615,63.646244 Z" /></g></svg>
