<?xml version="1.0" encoding="UTF-8" standalone="no"?>
<!-- Created with Inkscape (http://www.inkscape.org/) -->

<svg
   width="300"
   height="300"
   viewBox="0 0 281.25 281.25001"
   id="svg2"
   version="1.1"
   shape-rendering="crispEdges"
   xmlns="http://www.w3.org/2000/svg"
   xmlns:svg="http://www.w3.org/2000/svg"
   xmlns:rdf="http://www.w3.org/1999/02/22-rdf-syntax-ns#"
   xmlns:cc="http://creativecommons.org/ns#"
   xmlns:dc="http://purl.org/dc/elements/1.1/">
  <defs
     id="defs4">
    <filter
       style="color-interpolation-filters:sRGB"
       id="filter4167"
       x="0"
       y="0"
       width="1"
       height="1">
      <feColorMatrix
         values="1 0 0 0 0 0 1 0 0 0 0 0 1 0 0 0 0 0 1000 -500 "
         id="feColorMatrix4169" />
    </filter>
  </defs>
  <metadata
     id="metadata7">
    <rdf:RDF>
      <cc:Work
         rdf:about="">
        <dc:format>image/svg+xml</dc:format>
        <dc:type
           rdf:resource="http://purl.org/dc/dcmitype/StillImage" />
      </cc:Work>
    </rdf:RDF>
  </metadata>
  <g
     id="layer1"
     style="opacity:1;fill:#ffffff;fill-opacity:1">
    <path
       id="path4209"
       style="fill:#ffffff;fill-opacity:1;stroke:none;stroke-width:2.5;stroke-miterlimit:4;stroke-dasharray:none"
       d="m 105.5548,189.74199 v 5.44529 H 83.773621 v 5.44529 10.89059 h 5.445294 v -10.89059 h 21.781175 v -10.89058 z m 87.1247,0 v 16.33588 h 5.4453 v -16.33588 z m 0,16.33588 h -5.44529 v 10.89059 h 5.44529 z m -5.44529,10.89059 h -5.44529 v 5.44527 h 5.44529 z m -5.44529,5.44527 h -5.4453 v 10.89059 h 5.4453 z m -54.45295,-27.22645 v 38.11704 h 5.4453 v -32.67175 h 10.89059 v -5.44529 z m 38.11687,0 v 5.44529 h 21.78137 v -5.44529 z m -16.33569,5.44529 v 32.67175 h 5.4453 v -32.67175 z m 0,32.67175 h -5.44529 v 5.4453 h 5.44529 z m -5.44529,5.4453 h -21.78118 v 5.44529 h 21.78118 z M 100.1095,211.52316 v 5.4453 H 83.773621 v 21.78116 h -5.445295 v 5.44529 h 10.890589 v -5.44529 -16.33589 H 105.5548 v -10.89057 z m 92.57,21.78116 v 5.4453 h -27.22666 v 5.44529 H 198.1248 V 233.30432 Z M 72.882842,48.163847 c -27.05605,0 -49.007648,21.951598 -49.007648,49.007647 0,27.056046 21.951598,49.007646 49.007648,49.007646 H 203.5699 c 27.05605,0 49.00764,-21.9516 49.00764,-49.007646 0,-27.056049 -21.95159,-49.007647 -49.00764,-49.007647 z m 0,10.890588 h 59.635538 c -3.72269,7.408541 -8.72204,20.612007 -8.72204,38.117059 0,17.504336 4.9994,30.708036 8.72204,38.117056 H 72.882842 c -21.211044,0 -38.11706,-16.90602 -38.11706,-38.117056 0,-21.211038 16.906016,-38.117059 38.11706,-38.117059 z m 64.522478,0 h 1.6421 c 3.45485,6.210837 9.25275,19.386358 9.25275,38.117059 0,18.730516 -5.79789,31.906006 -9.25275,38.117056 h -1.6421 c -3.455,-6.21153 -9.25274,-19.38739 -9.25274,-38.117056 0,-18.730456 5.79779,-31.905993 9.25274,-38.117059 z" />
  </g>
</svg>
