<?xml version="1.0" encoding="UTF-8" standalone="no"?>
<!-- Created with Inkscape (http://www.inkscape.org/) -->

<svg
   width="300"
   height="300"
   viewBox="0 0 79.374998 79.374998"
   version="1.1"
   id="svg1"
   xml:space="preserve"
   xmlns="http://www.w3.org/2000/svg"
   xmlns:svg="http://www.w3.org/2000/svg"><defs
     id="defs1" /><g
     id="layer1"
     style="fill:#ffffff"><path
       id="path14"
       style="color:#000000;fill:#ffffff;stroke-linecap:round;-inkscape-stroke:none"
       d="m 62.450325,39.443587 a 2.5,2.5 0 0 0 -2.500105,2.499589 c 0,10.067016 -7.371939,19.238619 -21.077784,19.238619 -13.697415,0 -20.592024,-9.262287 -20.592024,-18.55494 A 2.5,2.5 0 0 0 15.780306,40.12675 2.5,2.5 0 0 0 13.2802,42.626855 c 0,11.466304 8.895396,22.736004 23.937557,23.50916 v 6.473506 H 26.661295 a 2.5,2.5 0 0 0 -2.500105,2.500106 2.5,2.5 0 0 0 2.500105,2.499589 h 26.355498 a 2.5,2.5 0 0 0 2.500105,-2.499589 2.5,2.5 0 0 0 -2.500105,-2.500106 H 42.217969 V 66.000623 C 56.28982,64.50772 64.950431,53.665127 64.950431,41.943176 A 2.5,2.5 0 0 0 62.450325,39.443587 Z M 39.151489,1.4831136 c -9.330896,0 -16.8429,7.512004 -16.8429,16.8428994 V 40.46213 c 0,9.330895 7.512004,16.842899 16.8429,16.842899 h 0.165881 c 9.330896,0 16.8429,-7.512004 16.8429,-16.842899 V 18.326013 c 0,-9.3308954 -7.512004,-16.8428994 -16.8429,-16.8428994 z M 24.42939,13.172323 h 3.290755 V 44.046407 H 24.42939 Z m 4.33772,4.70979 h 3.290755 V 44.046407 H 28.76711 Z m 8.606193,6.488492 h 3.290238 v 19.675802 h -3.290238 z m 8.605676,2.825668 h 3.290755 v 16.850134 h -3.290755 z m -12.908773,3.349149 h 3.290756 v 13.500985 h -3.290756 z m 17.042888,0.627869 h 3.290755 V 44.046407 H 50.113094 Z M 41.6764,33.057414 h 3.290238 V 44.046407 H 41.6764 Z" /></g></svg>
